<svg width="186" height="28" viewBox="0 0 186 28" fill="none" xmlns="http://www.w3.org/2000/svg">
<path d="M35.4382 20V6.90909H43.5561V8.60938H37.4134V12.598H42.9744V14.2919H37.4134V20H35.4382ZM49.3425 20.1982C48.3752 20.1982 47.5421 19.9915 46.8432 19.5781C46.1486 19.1605 45.6117 18.5746 45.2324 17.8203C44.8574 17.0618 44.6699 16.1733 44.6699 15.1548C44.6699 14.1491 44.8574 13.2628 45.2324 12.4957C45.6117 11.7287 46.1401 11.13 46.8176 10.6996C47.4995 10.2692 48.2963 10.054 49.2083 10.054C49.7623 10.054 50.2992 10.1456 50.8191 10.3288C51.339 10.5121 51.8056 10.7997 52.2189 11.1918C52.6323 11.5838 52.9583 12.093 53.1969 12.7195C53.4355 13.3416 53.5549 14.098 53.5549 14.9886V15.6662H45.7502V14.2344H51.682C51.682 13.7315 51.5797 13.2862 51.3752 12.8984C51.1706 12.5064 50.883 12.1974 50.5123 11.9716C50.1458 11.7457 49.7154 11.6328 49.2211 11.6328C48.6841 11.6328 48.2154 11.7649 47.8148 12.0291C47.4185 12.2891 47.1117 12.63 46.8944 13.0518C46.6813 13.4695 46.5748 13.9233 46.5748 14.4134V15.532C46.5748 16.1882 46.6898 16.7464 46.9199 17.2067C47.1543 17.6669 47.4803 18.0185 47.8979 18.2614C48.3155 18.5 48.8034 18.6193 49.3617 18.6193C49.7239 18.6193 50.0542 18.5682 50.3525 18.4659C50.6507 18.3594 50.9086 18.2017 51.1259 17.9929C51.3432 17.7841 51.5094 17.5263 51.6245 17.2195L53.4334 17.5455C53.2885 18.0781 53.0286 18.5447 52.6536 18.9453C52.2828 19.3416 51.8162 19.6506 51.2537 19.8722C50.6955 20.0895 50.0584 20.1982 49.3425 20.1982ZM59.3509 20.1918C58.5582 20.1918 57.8509 19.9893 57.2287 19.5845C56.6108 19.1754 56.125 18.5937 55.7713 17.8395C55.4219 17.081 55.2472 16.1712 55.2472 15.1101C55.2472 14.049 55.424 13.1413 55.7777 12.3871C56.1357 11.6328 56.6257 11.0554 57.2479 10.6548C57.87 10.2543 58.5753 10.054 59.3636 10.054C59.973 10.054 60.4631 10.1562 60.8338 10.3608C61.2088 10.5611 61.4986 10.7955 61.7031 11.0639C61.9119 11.3324 62.0739 11.5689 62.1889 11.7734H62.304V6.90909H64.2152V20H62.3487V18.4723H62.1889C62.0739 18.6811 61.9077 18.9197 61.6903 19.1882C61.4773 19.4567 61.1832 19.6911 60.8082 19.8913C60.4332 20.0916 59.9474 20.1918 59.3509 20.1918ZM59.7727 18.5618C60.3224 18.5618 60.7869 18.4169 61.1662 18.1271C61.5497 17.8331 61.8395 17.4261 62.0355 16.9062C62.2358 16.3864 62.3359 15.7812 62.3359 15.0909C62.3359 14.4091 62.2379 13.8125 62.0419 13.3011C61.8459 12.7898 61.5582 12.3913 61.179 12.1058C60.7997 11.8203 60.331 11.6776 59.7727 11.6776C59.1974 11.6776 58.718 11.8267 58.3345 12.125C57.951 12.4233 57.6612 12.8303 57.4652 13.3459C57.2734 13.8615 57.1776 14.4432 57.1776 15.0909C57.1776 15.7472 57.2756 16.3374 57.4716 16.8615C57.6676 17.3857 57.9574 17.8011 58.3409 18.108C58.7287 18.4105 59.206 18.5618 59.7727 18.5618ZM66.943 20V10.1818H68.8542V20H66.943ZM67.9082 8.6669C67.5758 8.6669 67.2903 8.55611 67.0517 8.33452C66.8173 8.10866 66.7001 7.8402 66.7001 7.52912C66.7001 7.21378 66.8173 6.94531 67.0517 6.72372C67.2903 6.49787 67.5758 6.38494 67.9082 6.38494C68.2406 6.38494 68.524 6.49787 68.7583 6.72372C68.997 6.94531 69.1163 7.21378 69.1163 7.52912C69.1163 7.8402 68.997 8.10866 68.7583 8.33452C68.524 8.55611 68.2406 8.6669 67.9082 8.6669ZM71.4254 20V10.1818H73.2599V11.7798H73.3814C73.5859 11.2386 73.9205 10.8168 74.3849 10.5142C74.8494 10.2074 75.4055 10.054 76.0533 10.054C76.7095 10.054 77.2592 10.2074 77.7024 10.5142C78.1499 10.821 78.4801 11.2429 78.6932 11.7798H78.7955C79.0298 11.2557 79.4027 10.8381 79.9141 10.527C80.4254 10.2116 81.0348 10.054 81.7422 10.054C82.6328 10.054 83.3594 10.3331 83.9219 10.8913C84.4886 11.4496 84.772 12.2912 84.772 13.4162V20H82.8608V13.5952C82.8608 12.9304 82.6797 12.4489 82.3175 12.1506C81.9553 11.8523 81.5227 11.7031 81.0199 11.7031C80.3977 11.7031 79.9141 11.8949 79.5689 12.2784C79.2237 12.6577 79.0511 13.1456 79.0511 13.7422V20H77.1463V13.4737C77.1463 12.9411 76.9801 12.5128 76.6477 12.1889C76.3153 11.8651 75.8828 11.7031 75.3501 11.7031C74.9879 11.7031 74.6534 11.799 74.3466 11.9908C74.044 12.1783 73.799 12.4403 73.6115 12.777C73.4283 13.1136 73.3366 13.5036 73.3366 13.9467V20H71.4254ZM91.4693 20.1982C90.5488 20.1982 89.7456 19.9872 89.0595 19.5653C88.3734 19.1435 87.8407 18.5533 87.4615 17.7947C87.0822 17.0362 86.8926 16.1499 86.8926 15.1357C86.8926 14.1172 87.0822 13.2266 87.4615 12.4638C87.8407 11.701 88.3734 11.1087 89.0595 10.6868C89.7456 10.2649 90.5488 10.054 91.4693 10.054C92.3897 10.054 93.193 10.2649 93.8791 10.6868C94.5652 11.1087 95.0978 11.701 95.4771 12.4638C95.8564 13.2266 96.046 14.1172 96.046 15.1357C96.046 16.1499 95.8564 17.0362 95.4771 17.7947C95.0978 18.5533 94.5652 19.1435 93.8791 19.5653C93.193 19.9872 92.3897 20.1982 91.4693 20.1982ZM91.4757 18.5938C92.0723 18.5938 92.5666 18.4361 92.9586 18.1207C93.3507 17.8054 93.6404 17.3857 93.8279 16.8615C94.0197 16.3374 94.1156 15.7599 94.1156 15.1293C94.1156 14.5028 94.0197 13.9276 93.8279 13.4034C93.6404 12.875 93.3507 12.451 92.9586 12.1314C92.5666 11.8118 92.0723 11.652 91.4757 11.652C90.8748 11.652 90.3762 11.8118 89.9799 12.1314C89.5879 12.451 89.296 12.875 89.1042 13.4034C88.9167 13.9276 88.823 14.5028 88.823 15.1293C88.823 15.7599 88.9167 16.3374 89.1042 16.8615C89.296 17.3857 89.5879 17.8054 89.9799 18.1207C90.3762 18.4361 90.8748 18.5938 91.4757 18.5938ZM105.537 12.5788L103.804 12.8857C103.732 12.6641 103.617 12.4531 103.459 12.2528C103.306 12.0526 103.097 11.8885 102.833 11.7607C102.569 11.6328 102.238 11.5689 101.842 11.5689C101.301 11.5689 100.849 11.6903 100.487 11.9332C100.125 12.1719 99.9435 12.4808 99.9435 12.8601C99.9435 13.1882 100.065 13.4524 100.308 13.6527C100.551 13.853 100.943 14.017 101.484 14.1449L103.044 14.5028C103.947 14.7116 104.62 15.0334 105.064 15.468C105.507 15.9027 105.728 16.4673 105.728 17.1619C105.728 17.75 105.558 18.2741 105.217 18.7344C104.88 19.1903 104.409 19.5483 103.804 19.8082C103.203 20.0682 102.507 20.1982 101.714 20.1982C100.615 20.1982 99.7177 19.9638 99.0231 19.495C98.3285 19.022 97.9023 18.3509 97.7447 17.4815L99.592 17.2003C99.707 17.6818 99.9435 18.0462 100.301 18.2933C100.659 18.5362 101.126 18.6577 101.701 18.6577C102.328 18.6577 102.828 18.5277 103.203 18.2678C103.578 18.0036 103.766 17.6818 103.766 17.3026C103.766 16.9957 103.651 16.7379 103.421 16.5291C103.195 16.3203 102.848 16.1626 102.379 16.0561L100.717 15.6918C99.8008 15.483 99.1232 15.1506 98.6843 14.6946C98.2496 14.2386 98.0323 13.6612 98.0323 12.9624C98.0323 12.3828 98.1942 11.8757 98.5181 11.4411C98.842 11.0064 99.2894 10.6676 99.8604 10.4247C100.431 10.1776 101.086 10.054 101.823 10.054C102.884 10.054 103.719 10.2841 104.328 10.7443C104.938 11.2003 105.341 11.8118 105.537 12.5788ZM115.187 12.5788L113.455 12.8857C113.382 12.6641 113.267 12.4531 113.11 12.2528C112.956 12.0526 112.747 11.8885 112.483 11.7607C112.219 11.6328 111.889 11.5689 111.492 11.5689C110.951 11.5689 110.499 11.6903 110.137 11.9332C109.775 12.1719 109.594 12.4808 109.594 12.8601C109.594 13.1882 109.715 13.4524 109.958 13.6527C110.201 13.853 110.593 14.017 111.134 14.1449L112.694 14.5028C113.597 14.7116 114.271 15.0334 114.714 15.468C115.157 15.9027 115.379 16.4673 115.379 17.1619C115.379 17.75 115.208 18.2741 114.867 18.7344C114.531 19.1903 114.06 19.5483 113.455 19.8082C112.854 20.0682 112.157 20.1982 111.365 20.1982C110.265 20.1982 109.368 19.9638 108.673 19.495C107.979 19.022 107.553 18.3509 107.395 17.4815L109.242 17.2003C109.357 17.6818 109.594 18.0462 109.952 18.2933C110.31 18.5362 110.776 18.6577 111.352 18.6577C111.978 18.6577 112.479 18.5277 112.854 18.2678C113.229 18.0036 113.416 17.6818 113.416 17.3026C113.416 16.9957 113.301 16.7379 113.071 16.5291C112.845 16.3203 112.498 16.1626 112.029 16.0561L110.367 15.6918C109.451 15.483 108.774 15.1506 108.335 14.6946C107.9 14.2386 107.683 13.6612 107.683 12.9624C107.683 12.3828 107.845 11.8757 108.169 11.4411C108.492 11.0064 108.94 10.6676 109.511 10.4247C110.082 10.1776 110.736 10.054 111.473 10.054C112.534 10.054 113.369 10.2841 113.979 10.7443C114.588 11.2003 114.991 11.8118 115.187 12.5788ZM123.503 20H121.406L126.117 6.90909H128.399L133.11 20H131.014L127.313 9.28693H127.21L123.503 20ZM123.855 14.8736H130.656V16.5355H123.855V14.8736ZM136.976 6.90909V20H135.001V6.90909H136.976ZM139.207 8.60938V6.90909H149.338V8.60938H145.254V20H143.285V8.60938H139.207ZM151.577 20V6.90909H153.552V12.598H160.078V6.90909H162.06V20H160.078V14.2919H153.552V20H151.577ZM164.936 20V6.90909H173.144V8.60938H166.911V12.598H172.715V14.2919H166.911V18.2997H173.22V20H164.936ZM175.782 20V6.90909H180.448C181.462 6.90909 182.304 7.08381 182.973 7.43324C183.646 7.78267 184.149 8.26633 184.482 8.88423C184.814 9.49787 184.98 10.2074 184.98 11.0128C184.98 11.8139 184.812 12.5192 184.475 13.1286C184.143 13.7337 183.64 14.2045 182.967 14.5412C182.298 14.8778 181.456 15.0462 180.442 15.0462H176.907V13.3459H180.263C180.902 13.3459 181.422 13.2543 181.822 13.071C182.227 12.8878 182.523 12.6214 182.711 12.272C182.898 11.9226 182.992 11.5028 182.992 11.0128C182.992 10.5185 182.896 10.0902 182.705 9.72798C182.517 9.36577 182.221 9.08878 181.816 8.89702C181.415 8.70099 180.889 8.60298 180.237 8.60298H177.757V20H175.782ZM182.244 14.0938L185.479 20H183.229L180.058 14.0938H182.244Z" fill="black"/>
<path d="M21.9842 10.9984L13.9996 18.983L6.00122 10.9984L13.9996 3L21.9842 10.9984Z" fill="url(#paint0_linear_143_1701)"/>
<path d="M6.01489 17.3244L14.0133 9.33984L21.9979 17.3244L14.0133 25.3229L6.01489 17.3244Z" fill="url(#paint1_linear_143_1701)"/>
<path d="M10.8352 6.15312L6 10.9883L17.1648 22.1531L22 17.318L10.8352 6.15312Z" fill="#0005EB"/>
<defs>
<linearGradient id="paint0_linear_143_1701" x1="17.9899" y1="14.9901" x2="9.99765" y2="6.99785" gradientUnits="userSpaceOnUse">
<stop stop-color="white" stop-opacity="0"/>
<stop offset="0.0712533" stop-color="#CBCCFB" stop-opacity="0.1423"/>
<stop offset="0.1536" stop-color="#9597F7" stop-opacity="0.3067"/>
<stop offset="0.2306" stop-color="#6B6EF3" stop-opacity="0.4603"/>
<stop offset="0.2997" stop-color="#4C50F1" stop-opacity="0.5983"/>
<stop offset="0.3585" stop-color="#3A3DF0" stop-opacity="0.7157"/>
<stop offset="0.4" stop-color="#3337EF" stop-opacity="0.7986"/>
<stop offset="0.4955" stop-color="#2428EE" stop-opacity="0.8306"/>
<stop offset="0.6637" stop-color="#1015EC" stop-opacity="0.8871"/>
<stop offset="0.8321" stop-color="#0409EB" stop-opacity="0.9437"/>
<stop offset="1" stop-color="#0005EB"/>
</linearGradient>
<linearGradient id="paint1_linear_143_1701" x1="10.0137" y1="13.3322" x2="18.006" y2="21.3244" gradientUnits="userSpaceOnUse">
<stop stop-color="white" stop-opacity="0"/>
<stop offset="0.0712533" stop-color="#CBCCFB" stop-opacity="0.1423"/>
<stop offset="0.1536" stop-color="#9597F7" stop-opacity="0.3067"/>
<stop offset="0.2306" stop-color="#6B6EF3" stop-opacity="0.4603"/>
<stop offset="0.2997" stop-color="#4C50F1" stop-opacity="0.5983"/>
<stop offset="0.3585" stop-color="#3A3DF0" stop-opacity="0.7157"/>
<stop offset="0.4" stop-color="#3337EF" stop-opacity="0.7986"/>
<stop offset="0.4955" stop-color="#2428EE" stop-opacity="0.8306"/>
<stop offset="0.6637" stop-color="#1015EC" stop-opacity="0.8871"/>
<stop offset="0.8321" stop-color="#0409EB" stop-opacity="0.9437"/>
<stop offset="1" stop-color="#0005EB"/>
</linearGradient>
</defs>
</svg>
