<svg width="142" height="28" viewBox="0 0 142 28" fill="none" xmlns="http://www.w3.org/2000/svg">
<path d="M36.544 20H34.4474L39.1584 6.90909H41.4403L46.1513 20H44.0547L40.3537 9.28693H40.2514L36.544 20ZM36.8956 14.8736H43.6967V16.5355H36.8956V14.8736ZM50.0169 6.90909V20H48.0417V6.90909H50.0169ZM52.4631 17.264H68.5191V18.38H52.4631V17.264ZM55.9911 11.774V12.836H65.2071V11.774H55.9911ZM55.9911 13.7V14.78H65.2071V13.7H55.9911ZM55.9911 9.884V10.91H65.2071V9.884H55.9911ZM54.6411 8.966H66.6111V15.698H54.6411V8.966ZM63.0111 15.464H64.3971V21.404H63.0111V15.464ZM54.4071 6.212H60.2211V7.328H54.4071V6.212ZM61.3371 6.212H68.3751V7.328H61.3371V6.212ZM54.7491 4.79L56.0091 5.132C55.6731 5.912 55.2471 6.674 54.7311 7.418C54.2271 8.15 53.7111 8.768 53.1831 9.272C53.1111 9.2 53.0031 9.116 52.8591 9.02C52.7271 8.924 52.5891 8.834 52.4451 8.75C52.3131 8.654 52.1931 8.576 52.0851 8.516C52.6251 8.048 53.1291 7.49 53.5971 6.842C54.0771 6.182 54.4611 5.498 54.7491 4.79ZM61.8231 4.79L63.1191 5.096C62.8311 5.876 62.4471 6.608 61.9671 7.292C61.4991 7.976 61.0071 8.552 60.4911 9.02C60.4071 8.948 60.2871 8.87 60.1311 8.786C59.9871 8.702 59.8371 8.624 59.6811 8.552C59.5371 8.468 59.4111 8.402 59.3031 8.354C59.8431 7.922 60.3351 7.394 60.7791 6.77C61.2231 6.134 61.5711 5.474 61.8231 4.79ZM55.5591 7.094L56.6931 6.716C56.9091 6.992 57.1251 7.31 57.3411 7.67C57.5571 8.018 57.7131 8.324 57.8091 8.588L56.6391 9.02C56.5431 8.768 56.3931 8.462 56.1891 8.102C55.9851 7.73 55.7751 7.394 55.5591 7.094ZM63.1191 7.04L64.2171 6.572C64.5051 6.848 64.7991 7.172 65.0991 7.544C65.4111 7.904 65.6391 8.228 65.7831 8.516L64.6491 9.038C64.5171 8.762 64.3011 8.438 64.0011 8.066C63.7131 7.682 63.4191 7.34 63.1191 7.04ZM57.0531 15.446H58.4211V16.904C58.4211 17.288 58.3611 17.684 58.2411 18.092C58.1331 18.5 57.9111 18.908 57.5751 19.316C57.2391 19.712 56.7531 20.09 56.1171 20.45C55.4811 20.822 54.6411 21.158 53.5971 21.458C53.5011 21.314 53.3691 21.14 53.2011 20.936C53.0451 20.732 52.8951 20.57 52.7511 20.45C53.7231 20.21 54.4911 19.946 55.0551 19.658C55.6311 19.358 56.0631 19.046 56.3511 18.722C56.6391 18.398 56.8251 18.08 56.9091 17.768C57.0051 17.444 57.0531 17.144 57.0531 16.868V15.446ZM70.9491 8.804H84.9171V10.19H70.9491V8.804ZM84.3951 8.804H85.7811C85.7811 8.804 85.7811 8.852 85.7811 8.948C85.7811 9.044 85.7751 9.146 85.7631 9.254C85.7631 9.362 85.7571 9.452 85.7451 9.524C85.6491 11.384 85.5471 12.968 85.4391 14.276C85.3431 15.584 85.2291 16.664 85.0971 17.516C84.9771 18.356 84.8391 19.022 84.6831 19.514C84.5391 19.994 84.3651 20.342 84.1611 20.558C83.9451 20.822 83.7171 21.002 83.4771 21.098C83.2491 21.194 82.9611 21.26 82.6131 21.296C82.3131 21.32 81.8931 21.326 81.3531 21.314C80.8251 21.302 80.2851 21.284 79.7331 21.26C79.7211 21.056 79.6731 20.822 79.5891 20.558C79.5171 20.294 79.4091 20.066 79.2651 19.874C79.8891 19.922 80.4591 19.958 80.9751 19.982C81.5031 19.994 81.8811 20 82.1091 20C82.3011 20 82.4571 19.982 82.5771 19.946C82.7091 19.91 82.8291 19.832 82.9371 19.712C83.1051 19.556 83.2551 19.25 83.3871 18.794C83.5311 18.326 83.6571 17.678 83.7651 16.85C83.8851 16.01 83.9931 14.954 84.0891 13.682C84.1971 12.41 84.2991 10.88 84.3951 9.092V8.804ZM76.8351 4.916H78.2391V8.03C78.2391 8.858 78.2031 9.734 78.1311 10.658C78.0591 11.57 77.9031 12.506 77.6631 13.466C77.4231 14.414 77.0571 15.362 76.5651 16.31C76.0731 17.258 75.4131 18.176 74.5851 19.064C73.7571 19.94 72.7131 20.756 71.4531 21.512C71.3811 21.392 71.2851 21.266 71.1651 21.134C71.0451 21.002 70.9191 20.87 70.7871 20.738C70.6551 20.618 70.5291 20.522 70.4091 20.45C71.6091 19.73 72.5991 18.962 73.3791 18.146C74.1711 17.33 74.7951 16.49 75.2511 15.626C75.7191 14.75 76.0611 13.874 76.2771 12.998C76.5051 12.122 76.6551 11.264 76.7271 10.424C76.7991 9.584 76.8351 8.786 76.8351 8.03V4.916ZM90.4251 6.248H102.611V7.616H90.4251V6.248ZM88.4631 11.648H104.483V13.034H88.4631V11.648ZM94.1691 12.476L95.7711 12.89C95.4711 13.658 95.1351 14.462 94.7631 15.302C94.4031 16.142 94.0311 16.952 93.6471 17.732C93.2751 18.512 92.9091 19.196 92.5491 19.784L91.2891 19.37C91.5411 18.914 91.7991 18.404 92.0631 17.84C92.3391 17.264 92.6031 16.664 92.8551 16.04C93.1191 15.416 93.3591 14.798 93.5751 14.186C93.8031 13.574 94.0011 13.004 94.1691 12.476ZM88.6431 19.1C89.5071 19.076 90.4911 19.046 91.5951 19.01C92.6991 18.974 93.8751 18.938 95.1231 18.902C96.3711 18.866 97.6551 18.824 98.9751 18.776C100.295 18.728 101.597 18.68 102.881 18.632L102.827 19.91C101.555 19.97 100.277 20.03 98.9931 20.09C97.7091 20.15 96.4491 20.204 95.2131 20.252C93.9891 20.312 92.8251 20.366 91.7211 20.414C90.6291 20.462 89.6391 20.498 88.7511 20.522L88.6431 19.1ZM98.7951 15.338L100.073 14.726C100.649 15.326 101.219 15.986 101.783 16.706C102.359 17.426 102.881 18.134 103.349 18.83C103.817 19.526 104.189 20.156 104.465 20.72L103.115 21.476C102.851 20.912 102.485 20.27 102.017 19.55C101.549 18.83 101.033 18.104 100.469 17.372C99.9171 16.628 99.3591 15.95 98.7951 15.338ZM107.345 6.086H121.529V7.436H107.345V6.086ZM106.391 13.736H122.537V15.086H106.391V13.736ZM108.587 8.66L109.811 8.3C110.051 8.732 110.285 9.194 110.513 9.686C110.741 10.178 110.945 10.664 111.125 11.144C111.317 11.612 111.449 12.02 111.521 12.368L110.243 12.818C110.159 12.458 110.027 12.044 109.847 11.576C109.679 11.096 109.487 10.604 109.271 10.1C109.055 9.584 108.827 9.104 108.587 8.66ZM119.045 8.21L120.467 8.606C120.251 9.098 120.011 9.602 119.747 10.118C119.495 10.634 119.243 11.132 118.991 11.612C118.739 12.092 118.493 12.512 118.253 12.872L117.083 12.494C117.311 12.11 117.545 11.672 117.785 11.18C118.037 10.676 118.271 10.166 118.487 9.65C118.703 9.122 118.889 8.642 119.045 8.21ZM113.717 6.608H115.121V21.422H113.717V6.608ZM127.343 19.334H137.477V20.63H127.343V19.334ZM126.713 13.754H138.197V21.404H136.757V15.05H128.099V21.44H126.713V13.754ZM130.331 4.808L131.825 5.33C131.465 6.026 131.063 6.752 130.619 7.508C130.187 8.252 129.749 8.972 129.305 9.668C128.861 10.352 128.435 10.958 128.027 11.486L126.839 10.982C127.247 10.454 127.667 9.836 128.099 9.128C128.531 8.408 128.939 7.67 129.323 6.914C129.719 6.158 130.055 5.456 130.331 4.808ZM134.669 7.724L135.731 6.95C136.343 7.43 136.967 7.97 137.603 8.57C138.239 9.158 138.821 9.758 139.349 10.37C139.889 10.97 140.315 11.516 140.627 12.008L139.457 12.908C139.169 12.416 138.761 11.864 138.233 11.252C137.717 10.64 137.147 10.028 136.523 9.416C135.899 8.792 135.281 8.228 134.669 7.724ZM124.589 10.406C125.441 10.382 126.413 10.352 127.505 10.316C128.597 10.268 129.761 10.22 130.997 10.172C132.245 10.124 133.517 10.07 134.813 10.01C136.121 9.95 137.411 9.896 138.683 9.848L138.611 11.144C137.351 11.216 136.079 11.282 134.795 11.342C133.523 11.39 132.275 11.444 131.051 11.504C129.827 11.564 128.675 11.618 127.595 11.666C126.515 11.702 125.549 11.738 124.697 11.774L124.589 10.406Z" fill="black"/>
<path d="M21.9842 10.9984L13.9996 18.983L6.00122 10.9984L13.9996 3L21.9842 10.9984Z" fill="url(#paint0_linear_143_1701)"/>
<path d="M6.01489 17.3244L14.0133 9.33984L21.9979 17.3244L14.0133 25.3229L6.01489 17.3244Z" fill="url(#paint1_linear_143_1701)"/>
<path d="M10.8352 6.15312L6 10.9883L17.1648 22.1531L22 17.318L10.8352 6.15312Z" fill="#0005EB"/>
<defs>
<linearGradient id="paint0_linear_143_1701" x1="17.9899" y1="14.9901" x2="9.99765" y2="6.99785" gradientUnits="userSpaceOnUse">
<stop stop-color="white" stop-opacity="0"/>
<stop offset="0.0712533" stop-color="#CBCCFB" stop-opacity="0.1423"/>
<stop offset="0.1536" stop-color="#9597F7" stop-opacity="0.3067"/>
<stop offset="0.2306" stop-color="#6B6EF3" stop-opacity="0.4603"/>
<stop offset="0.2997" stop-color="#4C50F1" stop-opacity="0.5983"/>
<stop offset="0.3585" stop-color="#3A3DF0" stop-opacity="0.7157"/>
<stop offset="0.4" stop-color="#3337EF" stop-opacity="0.7986"/>
<stop offset="0.4955" stop-color="#2428EE" stop-opacity="0.8306"/>
<stop offset="0.6637" stop-color="#1015EC" stop-opacity="0.8871"/>
<stop offset="0.8321" stop-color="#0409EB" stop-opacity="0.9437"/>
<stop offset="1" stop-color="#0005EB"/>
</linearGradient>
<linearGradient id="paint1_linear_143_1701" x1="10.0137" y1="13.3322" x2="18.006" y2="21.3244" gradientUnits="userSpaceOnUse">
<stop stop-color="white" stop-opacity="0"/>
<stop offset="0.0712533" stop-color="#CBCCFB" stop-opacity="0.1423"/>
<stop offset="0.1536" stop-color="#9597F7" stop-opacity="0.3067"/>
<stop offset="0.2306" stop-color="#6B6EF3" stop-opacity="0.4603"/>
<stop offset="0.2997" stop-color="#4C50F1" stop-opacity="0.5983"/>
<stop offset="0.3585" stop-color="#3A3DF0" stop-opacity="0.7157"/>
<stop offset="0.4" stop-color="#3337EF" stop-opacity="0.7986"/>
<stop offset="0.4955" stop-color="#2428EE" stop-opacity="0.8306"/>
<stop offset="0.6637" stop-color="#1015EC" stop-opacity="0.8871"/>
<stop offset="0.8321" stop-color="#0409EB" stop-opacity="0.9437"/>
<stop offset="1" stop-color="#0005EB"/>
</linearGradient>
</defs>
</svg>
